<?xml version="1.0" encoding="UTF-8"?><svg id="Livello_2" xmlns="http://www.w3.org/2000/svg" viewBox="0 0 287.28 78.47"><g id="Livello_1-2"><path d="m88.69,21.14v-.89c.25.17.26.42.32.64-.06.15-.16.24-.32.25Z"/><path d="m85.54,45.42c.07.47-.14.66-.61.6.15-.25.35-.46.61-.6Z"/><path d="m92.77,26.91c.24-.12.45-.18.55.17-.18-.06-.36-.11-.55-.17Z"/><path d="m108.88,23.41c-.01.19-.1.35-.23.48-.01-.2-.08-.43.23-.48Z"/><path d="m111.47,20.59c0-.14.02-.34.18-.32.18.03.06.21.05.34-.07,0-.15-.01-.22-.02Z"/><path d="m97,27.08c.03-.28.23-.26.43-.26-.1.15-.21.3-.43.26Z"/><path d="m88.86,41.91c-.16-.02-.27-.09-.3-.26.14.04.43-.09.3.26Z"/><path d="m92.34,26.79c.22-.17.24,0,.27.15-.13.02-.24,0-.27-.15Z"/><path d="m42.08,24.69c-.16-.02-.3-.06-.21-.27.16.02.21.13.21.27Z"/><path d="m85.59,2.1c.04.2-.1.24-.25.28,0-.17.08-.27.25-.28Z"/><path d="m87.08,42.08c.04.2-.1.25-.25.28,0-.17.08-.27.25-.28Z"/><path d="m87.37,1.93c-.16,0-.17-.14-.2-.25.15.02.35,0,.2.25Z"/><path d="m88.11,22.87s-.02-.09-.02-.14c.09,0,.18.01.27.02,0,.08-.01.17-.02.25-.07-.04-.15-.09-.22-.13Z"/><path d="m106.79,28.5s-.07.09-.11.13c-.02-.09.03-.12.11-.13Z"/><path d="m178.28,46.87c.67-.51,1.08-1.26,1.65-1.86.33-.35.45-.86.5-1.35.46-4.31.17-8.64.23-12.96.04-3.37,0-6.73,0-10.1.02-.12.13-.31-.05-.34-.15-.02-.17.18-.18.32-1.28,3.12-2.56,6.24-3.83,9.37-2.21,5.41-4.41,10.82-6.62,16.23-.1.24-.22.47-.33.7-.2,0-.4.01-.6.02-1.16-2.72-2.33-5.44-3.49-8.17-1.95-4.59-3.9-9.18-5.85-13.77-.32-.76-.63-1.51-.95-2.27l-.11-.13c-.22-.56-.45-1.11-.67-1.67-.06-.22-.08-.47-.32-.64v.89c0,4.56-.02,9.13-.02,13.69,0,1.83,0,3.67.01,5.5,0,.44-.01.88-.13,1.31.03.17.15.24.3.26-.02,1.08.56,1.93,1.09,2.79.57.93,1.44,1.56,2.4,2.05.02.07.04.13.06.2-2.79.13-5.57.02-8.36.06-.16,0-.38.01-.18-.25.17,0,.27-.09.27-.26.33-.04.49-.37.79-.47.47.07.67-.13.61-.6.67-.92,1.15-1.92,1.29-3.06.15-.04.29-.08.25-.28-.1-.66.08-1.32.06-1.98.39-.05.4-.33.4-.63,0-6.37,0-12.74,0-19.12,0-.3-.01-.58-.4-.62-.07-.67-.05-1.35-.32-1.98.01-.12-.02-.23-.15-.27-.22-1.11-1.35-1.5-1.88-2.4.2-.23.5-.11.76-.11,4.08,0,8.16,0,12.24-.02.6,0,.86.2,1.07.73,2.06,5.12,4.14,10.24,6.22,15.36.09.23.11.51.38.69.43-1.03.91-2.02,1.21-3.09.04-.04.07-.09.11-.13.63-1.53,1.33-3.04,1.86-4.61.14-.13.22-.29.23-.48,1.06-2.56,2.13-5.12,3.17-7.7.2-.5.46-.74,1.02-.74,3.96.01,7.92,0,11.88,0,.06,0,.12.05.17.08,0,.16-.11.22-.2.28-1.5,1.07-2.16,2.53-2.15,4.36.02,5.13,0,10.27,0,15.4,0,2.03.05,4.05-.01,6.08-.07,2.28.27,4.34,2.38,5.61-.05.2-.13.22-.23.22-5.19,0-10.37-.01-15.56-.02,0-.04-.01-.07-.03-.11Z"/><path d="m238.58,46.73c.56-.67,1.35-1.17,1.53-2.13.07-.39.16-.78.16-1.18,0-4.18.01-8.36,0-12.54,0-.9-.4-1.61-1.13-2.14-.04-.03-.08-.07-.13-.1-1.91-.6-3.2.4-3.41,2.63-.26,2.85-.08,5.7-.11,8.54-.02,1.43-.06,2.87.06,4.31.09,1.04.62,1.8,1.38,2.44.12.1.32.12.31.35-.18.16-.4.08-.6.08-4.27,0-8.54,0-12.8,0-.21,0-.53.15-.62-.16-.09-.33.24-.39.47-.5,1.11-.56,1.31-1.6,1.32-2.67.03-3.79.03-7.59.02-11.38,0-1.81-.02-3.61-.05-5.42-.02-.92-.69-1.46-1.31-2-.24-.21-.52-.39-.77-.58.13-.26.35-.17.51-.17,3.82,0,7.64,0,11.46-.02.5,0,.64.15.63.64-.02,1.39,0,2.78,0,4.17-.03.19-.09.39.06.66.07-.26.12-.46.17-.66,1.48-4.1,5.01-5.68,9.04-5.12,3.2.44,5.22,2.75,5.71,5.72.16.98.24,1.95.24,2.94,0,3.65.03,7.3,0,10.95-.01,1.37.41,2.48,1.56,3.26.07.05.11.15.17.22-.01.03-.02.06-.02.09-4.61,0-9.22,0-13.84,0,0-.09-.02-.17-.03-.26Z"/><path d="m208.63,47.44c-1.54.09-3.01-.1-4.37-.53-1.59-.5-3.11-1.26-4.48-2.28-1.57-1.16-2.79-2.64-3.55-4.37-.75-1.7-.99-3.58-.93-5.5.07-2.29.95-4.25,2.24-6.03,1.29-1.79,3.07-3.01,5.08-3.91,1.15-.51,2.37-.95,3.56-1.06,3.15-.3,6.27-.07,9.19,1.38,4.39,2.17,7,6.43,6.57,11.34-.44,4.94-3.25,8.07-7.67,9.94-.91.39-1.87.63-2.85.79-.95.15-1.9.33-2.79.23Zm-2.31-12.1c.02,2.33-.1,4.66.14,6.99.12,1.17.19,2.34.75,3.42.32.6.79.95,1.45.95.67,0,1.12-.37,1.44-.96.54-1.01.65-2.12.72-3.21.33-4.67.23-9.35,0-14.03-.06-1.09-.19-2.21-.76-3.2-.21-.36-.45-.65-.86-.78-.88-.29-1.58.01-2.02.92-.67,1.39-.73,2.91-.82,4.4-.11,1.83-.03,3.67-.03,5.51Z"/><path d="m265.5,25.39c0,4.95-.01,9.9,0,14.85,0,.27.08.56.18.82.64,1.68,2.23,2.2,3.76,1.25,1.23-.77,1.76-2,2.16-3.31.07-.22.12-.45.15-.67.04-.27.2-.38.44-.3.18.06.4.12.33.44-.76,3.47-2.03,6.62-5.54,8.23-1.79.83-3.69.94-5.64.64-1.36-.21-2.59-.68-3.67-1.54-1.48-1.18-2.23-2.77-2.49-4.61-.3-2.16-.12-4.32-.08-6.49.05-2.92.03-5.85.07-8.77,0-.46-.17-.57-.58-.54-.38.03-.75,0-1.13,0-.29,0-.42-.15-.44-.44-.01-.27.11-.35.36-.41,1.32-.31,2.61-.7,3.84-1.28,1.33-.63,2.7-1.16,3.69-2.35.31-.37.92-.47,1.24-.88.89-1.16,2.02-2.15,2.57-3.56.09-.23.23-.42.52-.37.31.06.22.33.22.52,0,2.24.02,4.48,0,6.72,0,.6.11.81.76.79,1.77-.05,3.54-.02,5.31,0,.21,0,.64-.17.57.26-.05.33.11.89-.6.88-1.96-.02-3.92,0-5.87.01-.09-.01-.13.02-.13.11Z"/><path d="m273.39,46.86c.32-.32.67-.62.97-.97.58-.69.76-1.54.76-2.41.01-5.21,0-10.42,0-15.63,0-1.65-.73-2.85-2.22-3.57.16-.26.37-.15.53-.15,3.82,0,7.64,0,11.46-.02.56,0,.71.15.7.7-.02,6.11.01,12.21-.03,18.32-.01,1.53.45,2.75,1.7,3.65,0,.07,0,.15,0,.22-4.61,0-9.22,0-13.84,0,0-.04-.02-.08-.04-.12Z"/><path d="m280.35,22.58c-2.98.16-5.15-2.32-5.43-4.41-.39-2.9,1.7-5.65,4.63-5.93,1.46-.14,2.89.05,4.07.84,1.14.77,2.08,1.88,2.24,3.36.19,1.78-.11,3.4-1.56,4.68-1.19,1.05-2.5,1.58-3.94,1.46Z"/><path d="m156.09,19.73c.39.04.4.32.4.62,0,6.37,0,12.74,0,19.12,0,.3,0,.58-.4.63,0-1.34-.03-2.68-.03-4.02,0-5.45.01-10.9.02-16.35Z"/><path d="m166.8,28.92c-.05.2-.1.39-.17.66-.15-.27-.09-.47-.06-.66.08,0,.16,0,.24,0Z"/><path d="m197.22,0c.15.22-.03.23-.17.26-.02-.13,0-.24.17-.26Z"/><path d="m170.07,28.64s.08.07.13.1c-.09.03-.12-.02-.13-.1Z"/><path d="m196.55,25.39c0-.09.04-.12.13-.11-.04.04-.08.07-.13.11Z"/><path d="m89.69,22.56l.11.13c-.08,0-.13-.04-.11-.13Z"/><path d="m29.33,26.39c-.04.05-.08.1-.13.15.04-.05.08-.1.13-.15Z"/><path d="m44.46,26.64s0-.07.02-.1c.03.02.06.05.09.07-.04,0-.07.02-.11.02Z"/><path d="m221.37,68.43c.38-.23.76-.47,1.22-.54,1.36-.21,2.4.65,2.44,2.06.03.99.01,1.98.01,2.97,0,.54-.02,1.09.62,1.54h-4.13c.96-1.37.36-2.9.51-4.35.04-.35-.09-.68-.5-.73-.47-.06-.64.28-.68.64-.13,1.22-.07,2.44-.04,3.67,0,.31.3.46.48.81-1.38,0-2.71,0-4.03,0,.24-.37.54-.7.53-1.19-.02-1.44-.02-2.87-.03-4.31-.02-.07-.02-.21-.06-.22-.15-.04-.15.1-.18.2-.02.02-.04.03-.05.05-.68.61-.86.57-1.08-.24-.13-.46-.45-.57-.96-.31.67.57,1,1.25.72,2.13-.3.93-1.07,1.27-1.92,1.46-.77.17-1.56.32-2.35.01-.24-.09-.49-.18-.72.05-.11.11-.17.23-.07.37.18.27.47.18.71.18.87.01,1.74-.02,2.61,0,1.7.05,2.41.53,2.71,1.8.07,1.74-1.17,2.49-2.89,2.76-1.27.2-2.58.2-3.86-.14-.49-.13-.88-.36-.92-.91-.05-.6.44-.71.86-.85.06-.02.12-.05.19-.07-1.27-1.15-1.24-2.22.1-3.26.21-.16.34-.25.05-.45-.79-.54-.97-1.32-.7-2.18.28-.89,1.03-1.33,1.88-1.38.95-.06,1.93-.18,2.88.1.34.1.46-.11.62-.32.46-.63,1.45-.77,1.95-.22.33.36.68.44,1.12.42.64-.02,1.27.01,1.91-.01.33-.01.49.09.48.43-.02.24-.07.48.04.74.19-.26.35-.5.52-.73Zm-8.55,8.62c.64.02,1.25-.04,1.8-.34.27-.15.53-.36.45-.72-.08-.35-.37-.48-.69-.49-.94-.01-1.88-.02-2.82,0-.32,0-.61.14-.68.51-.07.38.13.63.46.78.48.23.99.29,1.49.26Zm-.14-7.11c.02.51.03.98.08,1.44.02.17.06.42.3.41.2,0,.23-.21.26-.37.15-.94.15-1.87,0-2.81-.03-.16-.05-.36-.27-.35-.21.01-.25.22-.27.37-.05.44-.06.89-.09,1.3Z"/><path d="m52.75,68c.98,0,1.97.03,2.95,0,.44-.01.67.1.62.57-.01.19-.08.38.05.6.13-.22.24-.41.35-.6.96-1.09,2.94-.98,3.66.69.41-.43.54-1.08,1.22-1.26,1.12-.31,2.28.02,2.96.93.06.08.07.22.06.33-.18,1.36-.03,2.72-.07,4.08-.01.41.17.77.46,1.04-.08.19-.21.13-.31.13-3.79,0-7.59,0-11.38,0-.17,0-.41.11-.5-.12-.07-.18.14-.27.25-.39.23-.25.24-.55.24-.86,0-1.22,0-2.45,0-3.67,0-.55-.12-1.03-.61-1.34.02-.04.04-.08.05-.12Zm4.66,3.81s0,0,.01,0c0-.54,0-1.08,0-1.63,0-.37-.03-.78-.47-.83-.52-.06-.6.44-.62.78-.05,1.15-.04,2.31-.01,3.46,0,.33.19.73.55.72.35,0,.51-.4.53-.74.03-.59,0-1.18,0-1.77Zm4.13,0h0c0-.59,0-1.17,0-1.76,0-.32-.06-.64-.46-.67-.4-.03-.52.26-.57.58-.18,1.21-.1,2.43-.05,3.65.02.32.18.75.55.71.35-.04.53-.43.53-.82,0-.56,0-1.13,0-1.69Z"/><path d="m69.17,68.56c.95-1.08,2.93-.99,3.71.79.37-1.04,1.05-1.48,2.08-1.5.91-.02,1.42.63,2.06,1.07.06.04.07.17.06.26-.19,1.24-.03,2.48-.08,3.72-.02.55.04,1.08.56,1.55h-12.21c.78-1.77.3-3.64.36-5.48.01-.38-.27-.64-.56-.85.02-.04.04-.08.05-.12.98,0,1.97.03,2.95,0,.44-.01.67.1.62.57-.01.19-.08.38.05.6.13-.22.24-.41.34-.6Zm.69,3.25s0,0,.01,0c0-.54,0-1.08,0-1.62,0-.37-.03-.78-.47-.83-.52-.06-.6.44-.62.78-.05,1.15-.04,2.31-.01,3.46,0,.33.19.73.55.72.35,0,.51-.4.53-.74.03-.59,0-1.18,0-1.77Zm4.12-.06h0c0-.56,0-1.13,0-1.69,0-.32-.05-.64-.45-.68-.4-.04-.52.24-.58.57-.19,1.21-.1,2.43-.05,3.65.01.32.17.75.54.72.36-.03.53-.42.54-.8,0-.59,0-1.17,0-1.76Z"/><path d="m181.56,65.55c2.18-.03,4.29-.3,6.38.12,3.86.76,4.17,5.12,2.56,7.08-.98,1.2-2.34,1.64-3.8,1.71-1.71.09-3.43.02-5.33.02,1.13-.79.89-1.86.89-2.87,0-1.3,0-2.59,0-3.89,0-.79.06-1.58-.71-2.18Zm3.86,4.43c0,1.18.03,2.36-.01,3.53-.02.56.23.64.68.54.76-.17,1.27-.64,1.52-1.34.62-1.81.62-3.65,0-5.46-.24-.71-.76-1.18-1.52-1.34-.45-.1-.7-.01-.68.55.04,1.18.01,2.35.01,3.53Z"/><path d="m148.01,69.3c.59.7,1.19,1.4,1.77,2.11.3.37.43.21.56-.13.26-.65.12-1.12-.48-1.51-.11-.07-.23-.14-.48-.3h2.53c-1.04.52-.84,1.71-1.37,2.5-.17.25.06.39.18.54.57.68,1.13,1.39,1.92,1.86-.14.24-.35.14-.51.13-1.36-.06-2.73.16-4.08-.14-.15-.03-.32.03-.48.07-1.24.33-2.46.28-3.67-.18-.83-.32-1.36-1.07-1.38-2.01-.01-.8.46-1.44,1.31-1.76.3-.11.61-.19.96-.29-.26-.36-.5-.67-.71-1.01-.94-1.48-.09-3.33,1.52-3.72,1.06-.25,2.09-.22,3.1.26.69.33,1.07.8,1.05,1.59-.02.8-.48,1.24-1.14,1.54-.19.09-.39.17-.58.25-.16.06-.12.13-.01.2Zm-2.99,2.3c0,1.48.96,2.47,2.24,2.32.21-.02.47-.02.55-.22.08-.19-.16-.31-.28-.45-.55-.64-1.09-1.29-1.67-1.91-.21-.22-.35-.69-.7-.55-.27.11-.09.56-.15.81Zm2.86-4.22c0-.61-.07-1.03-.36-1.37-.28-.33-.62-.51-1.06-.29-.44.22-.5.6-.4,1.02.08.35.27.65.51.92.28.32.52.96.91.82.39-.14.39-.79.4-1.09Z"/><path d="m135.3,68.43c.72-.56,1.56-.6,2.42-.57.68.02.67.69.96,1.05.26.33.3.77.3,1.21,0,.89,0,1.79,0,2.68,0,.59,0,1.17.58,1.7-1.36,0-2.57,0-3.79,0-.32,0-.41-.15-.16-.36.37-.32.38-.73.38-1.16,0-.92,0-1.84,0-2.76,0-.39-.04-.8-.54-.85-.52-.05-.66.37-.67.74-.04,1.18-.02,2.35-.03,3.53,0,.33.32.5.47.86-1.26,0-2.47,0-3.69,0-.43,0-.37-.2-.14-.41.29-.26.34-.6.34-.96,0-1.25-.01-2.5,0-3.74,0-.54-.16-.96-.61-1.27.02-.04.04-.08.05-.12,1.01,0,2.02,0,3.03,0,.22,0,.5-.08.54.27,0,.28,0,.56,0,.93.23-.32.39-.55.56-.78Z"/><path d="m90.43,68.43c.72-.56,1.56-.6,2.42-.57.68.02.66.69.96,1.06.25.3.3.73.3,1.14,0,.9,0,1.79,0,2.69,0,.61-.03,1.22.55,1.72h-4.07c.95-1.46.38-3.03.5-4.54.02-.29-.18-.54-.53-.56-.34-.02-.52.17-.6.49-.23.91-.09,1.83-.1,2.74,0,.56-.15,1.13.36,1.64.3.29-.16.25-.31.26-1.15.01-2.31,0-3.47,0,.8-1.82.3-3.7.38-5.54.02-.37-.28-.63-.57-.85.02-.04.04-.08.05-.12,1.01,0,2.02,0,3.03,0,.22,0,.5-.08.54.27,0,.28,0,.56,0,.93.23-.31.39-.55.56-.78Z"/><path d="m81.9,68.01c1.12,0,2.13.02,3.13,0,.48-.01.45.27.45.59,0,1.48,0,2.97,0,4.45,0,.5.04.99.65,1.46-1.24,0-2.3,0-3.37,0-.07,0-.19-.02-.2-.05-.28-.94-.71-.28-1.08-.1-1.63.8-3.17.08-3.23-1.85-.03-.82.02-1.65-.02-2.47-.03-.69-.19-1.36-.65-2.02,1.15,0,2.23,0,3.32,0,.41,0,.34.32.34.56,0,1.13,0,2.26,0,3.39,0,.19,0,.38.02.56.05.31.17.63.53.66.38.04.57-.26.6-.57.15-1.26.1-2.53.03-3.8-.02-.3-.32-.45-.54-.8Z"/><path d="m158.09,66.14c-.44-.33-.75,0-1.03.23-.72.61-1.2,1.41-1.67,2.21-.05.02-.11.03-.16.05-.09-1.02.17-2.01.32-3.01.04-.25.14-.27.38-.26,2.82.15,5.65.11,8.48.03.66-.02.54.69.55.91,0,.77.17,1.52.15,2.32-.54-.65-1.02-1.33-1.56-1.96-.47-.54-.97-.77-1.64-.76-.08-.01-.12.02-.11.11,0,2.35-.01,4.71-.02,7.06,0,.54.24.97.71,1.4h-4.63c.87-.67.7-1.52.7-2.32,0-1.91,0-3.81,0-5.72.12-.14.16-.34.04-.43-.16-.12-.32.1-.49.14Z"/><path d="m36.21,71.39c-.02-.82-.11-1.64.06-2.46.39-1.85,2.15-3.52,4.49-3.59.71-.02,1.42-.16,2.13.22.34.18.84.14,1.21-.14.06,0,.12,0,.18.01.04.95.07,1.89.11,2.84-.09,0-.18.02-.28.03-.13-.25-.3-.49-.37-.75-.31-1.1-1.3-1.42-2.17-1.77-.66-.26-1.14.35-1.43.87-.89,1.61-1,3.41.01,5.07.47.77,1.31,1.05,2.1,1.19.84.15,1.63-.18,2.05-1.04.07-.13.13-.2.25-.13.14.08.04.21,0,.31-.51,1.4-1.52,2.2-2.98,2.51-1.94.41-4.03-.55-4.77-1.8-.2-.34-.32-.73-.48-1.09-.04-.05-.07-.11-.11-.16,0,0,.02,0,.02,0,0-.04,0-.08-.02-.12Z"/><path d="m108.39,70.71c-1.13.34-1.69.05-2.16-1.16.01-.04.02-.09.01-.14.36-.94,1.12-1.31,2.05-1.46.84-.14,1.68-.09,2.51,0,.93.11,1.52.75,2.08,1.43.21.25-.07.36-.06.55.03,1.03.05,2.07.06,3.1,0,.54.18.93.82.92-.79.9-2.83.96-3.55.07-.25-.3-.33-.17-.53-.02-.76.59-1.59.86-2.55.48-.88-.34-1.1-.66-1.1-1.57,0-.78.42-1.38,1.18-1.65.4-.14.81-.22,1.22-.32.35-.05.69-.1,1.04-.15.23-.04.39-.13.38-.41,0-.51.02-1.03,0-1.54,0-.31-.15-.55-.49-.58-.33-.03-.52.15-.64.44-.24.6.02,1.04.74,1.24-.22.44-.6.63-1.04.76Zm1.54,1.39c0-.18.01-.3,0-.41-.02-.19.11-.47-.16-.55-.24-.08-.45.09-.61.27-.34.38-.43,1.33-.17,1.74.09.15.21.25.39.25.22,0,.35-.12.42-.31.13-.34.15-.69.13-.98Z"/><path d="m129.34,68.42c.61.38.94,1.03,1.48,1.47.28.22.01.52.05.79.29,1.76-.51,2.93-2.06,3.64-1.53.69-3.55.34-4.7-.89-.85-.91-.92-2.08-.57-3.23.45-1.46,1.87-2.29,3.37-2.24.72.03,1.46-.21,2.15.17.04.14.08.29.27.28Zm-2.83,2.8c.01.82-.04,1.65.14,2.46.06.28.13.61.47.62.39.01.47-.36.51-.65.2-1.57.22-3.14.01-4.72-.04-.3-.09-.66-.48-.68-.41-.02-.45.34-.51.64-.17.77-.12,1.55-.13,2.32Z"/><path d="m50.92,68.42c.61.38.94,1.03,1.48,1.47.25.21.01.48.05.72.36,2.05-1.02,3.34-2.23,3.79-1.63.6-3.65.18-4.76-1.19-.59-.73-.63-1.74-.45-2.67.31-1.69,1.94-2.63,3.48-2.57.72.03,1.45-.21,2.15.17.04.14.08.29.27.28Zm-2.83,2.79c0,.85-.04,1.7.15,2.53.06.25.14.55.45.56.37.02.46-.31.5-.58.23-1.64.24-3.28,0-4.93-.04-.25-.13-.54-.45-.55-.37-.02-.45.29-.51.57-.17.79-.15,1.59-.14,2.39Z"/><path d="m168.09,68.02c1.59-.19,2.83.38,3.51,1.76,1.17,2.37-.32,4.45-2.83,4.84-1.33.2-2.52-.21-3.53-1.08-1-.87-1.33-3.54.38-4.82.75-.56,1.57-.84,2.47-.69Zm-.53,3.19c0,.85-.04,1.7.15,2.53.06.25.14.55.45.56.37.02.46-.31.5-.58.23-1.64.24-3.28,0-4.93-.04-.25-.13-.54-.45-.55-.37-.02-.45.29-.51.57-.17.79-.15,1.59-.14,2.39Z"/><path d="m198.52,72.37c.11.42-.1.64-.25.86-.78,1.11-1.89,1.5-3.2,1.39-1.29-.11-2.37-.61-2.9-1.87-1.05-2.5.71-4.93,3.01-4.76.74.06,1.5-.11,2.19.34.79.5,1.24,1.19,1.34,2.12.04.39-.08.55-.49.54-.89-.02-1.79.01-2.68-.02-.49-.02-.62.16-.54.62.13.7.47,1.22,1.14,1.5.67.27,1.29.16,1.87-.26.17-.12.31-.28.52-.47Zm-2.6-2.75c-.04-.33-.05-.65-.11-.97-.03-.18-.1-.38-.34-.38-.24,0-.33.18-.37.36-.13.57-.2,1.15-.19,1.74,0,.2.11.27.31.3.64.11.73-.02.71-1.05Z"/><path d="m230.73,70.98c-.38,0-.76.04-1.13,0-.62-.07-.77.14-.62.74.39,1.5,1.87,1.98,3.05.97.13-.11.25-.39.44-.24.2.16,0,.39-.09.57-.75,1.38-2.5,1.94-4.27,1.44-1.69-.48-2.48-2.09-2.21-3.88.23-1.5,1.59-2.59,3.23-2.57.74,0,1.5-.12,2.2.32.77.48,1.22,1.15,1.35,2.04.06.44-.03.67-.54.63-.47-.04-.94,0-1.41,0Zm-.84-1.31c-.03-.33-.04-.66-.1-.98-.04-.19-.09-.44-.38-.42-.23.01-.32.21-.35.39-.08.55-.13,1.11-.19,1.67-.02.23.1.32.33.35.62.08.7-.02.68-1Z"/><path d="m174.35,73.65c-.94-1.86-1.72-3.8-2.97-5.58h4.09c-.51,1.23.47,2.09.91,3.09.12.28.4-.08.45-.21.25-.56.47-1.13.64-1.72.15-.53-.18-.87-.78-1.19h2.12c-1.49,2.34-2.19,5-3.31,7.47-.24.54-.43,1.11-.9,1.5-.57.47-1.22.48-1.86.2-.58-.25-.69-.78-.64-1.36.04-.55.37-.87.85-1,.31-.09.84-.29.56.46-.1.28-.02.59.28.72.34.15.71.14.99-.14.24-.24.54-.51.33-.92-.2-.4-.42-.79-.63-1.18,0-.08-.04-.14-.13-.15Z"/><path d="m236.82,68.92c.36-.41.57-.96,1.25-1.04.75-.09,1.45.18,1.73.79.3.65.09,1.73-.44,2.12-.22.16-.49.26-.74.39-.18.09-.37.13-.53-.02-.2-.18,0-.33.06-.49.14-.38.16-.78-.29-.95-.42-.16-.85-.11-1.12.32-.18.29-.24.61-.24.95,0,.45,0,.89,0,1.34q0,1.28.8,2.13h-4.4c.99-1.01.58-2.18.58-3.26,0-1.05.43-2.22-.64-3.2,1.18,0,2.23.01,3.28,0,.59,0,.31.45.41.71,0,.24,0,.48,0,.93.15-.36.23-.54.3-.71Z"/><path d="m102.72,70.06c.46-.05.88-.08.97-.6.06-.38.07-.74-.28-1.02-.39-.31-.72-.26-.93.15-.38.78-.48,1.6-.18,2.44.04.1.16.17.11.31-.29.8.11,1.32.75,1.68.7.4,1.42.25,2.06-.35.1-.09.15-.25.37-.21-.02.59-.4.98-.79,1.34-1.55,1.47-4.6,1.02-5.5-1.09-.7-1.65-.11-4.16,2.39-4.69.82-.17,1.63-.19,2.45,0,.73.16,1.35.8,1.39,1.5.03.58-.21,1.05-.77,1.31-.82.38-1.59.12-2.04-.76Z"/><path d="m118.78,68.28c-.46.28-.96.08-1.44.14-.21.02-.44,0-.44.31.01,1.31.02,2.63.04,3.94,0,.14.05.33.21.42.02.07.05.13.14.09.6.17.85-.3,1.16-.66.1,0,.19,0,.29,0-.44,1.71-2.04,2.55-3.63,1.88-.81-.34-1.18-1-1.2-1.83-.04-1.11,0-2.21,0-3.32,0-.43.11-.91-.59-.94.3-.4.72-.4,1.05-.53.9-.34,1.56-.92,2.1-1.69.04-.06.17-.05.25-.07,0,.11,0,.23.15.27.09.54-.24,1.27.15,1.59.33.27,1.02.11,1.55.13.05.04.09.07.14.11.02.05.04.1.06.14Z"/><path d="m204.07,69.72c-.2-.24-.41-.49-.61-.73.02-.07,0-.1-.08-.07-.58-.42-1.2-.73-1.95-.63-.23.03-.42.07-.45.34-.03.23-.06.49.2.62.23.12.46.21.7.31.48.19.98.33,1.45.55,1.29.59,1.8,1.5,1.58,2.72-.18.99-1.12,1.71-2.39,1.83-1,.1-1.99-.33-3-.08-.18.05-.24-.17-.24-.35,0-.52-.04-1.04,0-1.55.04-.52.19.04.29,0,.04.05.09.09.13.14.2.4.45.76.85,1,.02.06.04.12.13.09.45.31.92.57,1.49.47.35-.07.71-.22.79-.61.09-.44-.29-.6-.61-.75-.65-.3-1.32-.57-1.96-.89-.94-.48-1.19-1.3-1.13-2.3.06-.9.6-1.42,1.36-1.71.64-.25,1.35-.15,2.02-.04.53.09,1.04.17,1.54-.08.05,0,.1.01.15.02,0,.52,0,1.04,0,1.55-.12,0-.21.05-.26.16Z"/><path d="m94.79,68c1.01,0,2.02.01,3.02,0,.31,0,.57.01.55.42,0,1.46,0,2.92,0,4.38-.06.59-.1,1.16.67,1.65h-4.33c.83-.69.63-1.53.64-2.33,0-.89-.01-1.78,0-2.67.01-.56-.14-1.01-.61-1.33.02-.04.04-.08.05-.12Z"/><path d="m208.78,72.95c-.08.56-.01,1.07.57,1.52h-4.06c.91-1.74.31-3.6.45-5.4.03-.39-.25-.69-.69-1.05,1.28,0,2.41,0,3.53,0,.14,0,.16.15.19.26,0,1.56,0,3.11,0,4.67Z"/><path d="m119,68c.99,0,1.97,0,2.96.01.23,0,.55-.12.61.27,0,1.56,0,3.11,0,4.67-.08.56-.02,1.07.58,1.52h-4.07c.92-1.75.31-3.61.45-5.41.02-.31-.11-.65-.49-.79-.01-.09-.03-.18-.04-.27Z"/><path d="m33.93,78.19c0,.09.02.17.03.26-.1.02-.23.06-.25-.09-.02-.15.13-.14.22-.17Z"/><path d="m82.62,78.45c0-.07,0-.15,0-.22.16.08.21.15,0,.22Z"/><path d="m47.8,78.44s0-.06.02-.09c.03.02.06.04.08.07-.03,0-.07.01-.1.02Z"/><path d="m68.74,78.33s.04.08.04.12c-.04,0-.07-.02-.11-.03.02-.03.04-.06.07-.1Z"/><path d="m117.3,73.18c-.09.04-.12-.02-.14-.09.05.03.09.06.14.09Z"/><path d="m174.35,73.65c.09,0,.12.07.13.15-.04-.05-.09-.1-.13-.15Z"/><path d="m200.67,73.89c-.09.04-.11-.02-.13-.09.04.03.09.06.13.09Z"/><path d="m88.35,22.75c-.09,0-.18-.01-.27-.02.04-.08.07-.21.11-.22.17-.02.14.13.15.24Z"/><path d="m4.86,39.59c-.01.66-.02,1.32-.04,1.98.03.12.04.25.2.25.11,1.3.7,2.38,1.52,3.37.58.7,1.38,1.11,2.13,1.59-.02.04-.03.07-.04.12-2.76,0-5.52.02-8.28.01-.12,0-.48.18-.33-.25.04-.03.08-.07.13-.1,1.59-1.01,2.61-2.38,2.84-4.29.15-.04.29-.08.25-.28.02-.71.04-1.41.06-2.12.39-.11.39-.43.39-.74,0-6.15,0-12.31,0-18.46,0-.34,0-.71-.4-.89.02-2-.68-3.63-2.44-4.73.23-.3.48-.19.69-.19,4.15,0,8.3,0,12.45-.02.59,0,.81.22,1.01.72,2.07,5.15,4.16,10.29,6.25,15.43.09.21.11.47.37.65.71-1.72,1.42-3.43,2.13-5.14,1.52-3.7,3.04-7.4,4.56-11.1.13-.33.25-.55.68-.55,4.01.02,8.02.01,12.03.01.09,0,.19-.03.28.15-.2.18-.41.38-.64.57-1.17.97-1.71,2.23-1.71,3.72,0,7.73,0,15.46,0,23.19,0,1.44.5,2.67,1.62,3.62.25.21.49.44.72.64-.02.15-.11.17-.2.17-5.19,0-10.37-.02-15.56-.02,0-.04-.01-.07-.03-.1.76-.44.95-1.36,1.65-1.9.38-.29.57-.9.42-1.53-.1-.45.25-.89.25-1.39,0-.36.07-.74.07-1.12,0-6.83-.01-13.66-.02-20.49.02-.07.08-.15-.03-.21-.03.06-.05.11-.08.17-.79,1.88-1.59,3.77-2.37,5.66-2.11,5.14-4.21,10.28-6.31,15.42-.74,1.81-1.46,3.62-2.19,5.42-.08.19-.08.48-.32.5-.34.03-.27-.34-.35-.52-1.49-3.46-2.96-6.92-4.43-10.39-.01-.31,0-.64-.37-.79-.55-1.72-1.35-3.35-2.04-5.02-1.34-3.2-2.72-6.39-4.09-9.58-.07-.31-.16-.61-.44-.95,0,2.9,0,5.67,0,8.44,0,3.69.02,7.38.02,11.06Z"/><path d="m132.96,47.05c-2.05-.51-3.55-1.6-4.01-3.79,0-.08.01-.17.02-.25,0-.11.01-.26-.15-.24-.05,0-.08.14-.11.22,0,.05.01.09.02.14-1.07,2.51-3.03,3.69-5.68,4-1.8.21-3.53.08-5.15-.67-1.57-.73-2.63-1.91-2.98-3.75-.17-.87-.18-1.7-.19-2.56.14-.03.31-.04.17-.26.11-1.23.87-2.07,1.74-2.81.76-.65,1.62-1.18,2.59-1.48.12,0,.23-.02.27-.15,1.19-.27,2.37-.57,3.56-.81,1.71-.35,3.42-.67,5.13-.97.42-.07.54-.25.54-.64-.01-1.7.04-3.4-.03-5.09-.03-.68-.07-1.39-.34-2.06-.51-1.25-1.62-1.75-2.93-1.29-.04.04-.08.07-.12.11-1.19.45-1.35,1.54-1.59,2.58-.11.02-.22.04-.24.18-.02.18.1.22.24.24-.07.65.21,1.24.38,1.83.21.76.88,1.07,1.63,1.14.33.03.66,0,.99-.01.03.05.07.1.1.15-.08.1-.16.2-.23.29-.61.06-.94.39-.99,1-.95.85-2.11,1.14-3.32,1.41-.78.18-1.59,0-2.35.25,0-.24-.01-.48-.37-.35-.96-.11-1.74-.61-2.47-1.21-.04-.04-.07-.07-.11-.11-.54-.72-1.17-1.4-.99-2.41.4-.19.4-.38,0-.56-.02-.84.38-1.55.68-2.29,0,0,0-.06,0-.06.54-.57,1.22-.97,1.83-1.47.05-.03.1-.07.14-.1,3.05-1.58,6.34-1.74,9.66-1.57.68.03,1.32.13,1.95-.14.06.13-.12.46.26.29,1.27-.07,2.41.47,3.59.8,1.19.33,2.19,1.05,3.09,1.88.03.03.07.07.1.1.25.33.51.66.76,1,.02.19.11.35.25.48,1.07,2.58.66,5.28.65,7.94,0,2.3-.12,4.61.09,6.91.15,1.58.89,2.22,2.5,2.22.21,0,.41,0,.83,0-1.38,1.14-2.78,1.72-4.34,1.98-.2,0-.4-.02-.43.26-1.23,0-2.45,0-3.68,0-.09-.35-.31-.29-.55-.17-.05.01-.11.02-.16.03-.03-.15-.05-.32-.27-.15Zm-4.25-8.96c0-.97,0-1.75,0-2.53,0-1.11.01-1.05-1.11-.85-1.2.22-2.14.86-2.48,1.94-.54,1.73-.75,3.54-.15,5.33.34,1.04.83,1.46,1.73,1.44.86-.01,1.41-.52,1.74-1.48.45-1.34.19-2.71.28-3.86Z"/><path d="m58.07,23.87c2.35.02,4.5.68,6.4,2.08,1.04.77,1.67,1.81,2.03,3.1.31,1.11.39,2.2.39,3.33-.02,3.25-.03,6.5-.03,9.76,0,.66.2,1.3.44,1.91.28.72.93.97,1.64,1.04.36.04.74,0,1.25,0-.81.97-1.81,1.35-2.78,1.68-2.37.79-4.78.87-7.19.06-1.5-.5-2.59-1.4-3.15-2.91-.07-.19-.12-.45-.37-.45-.19,0-.31.17-.4.35-.92,1.87-2.53,2.78-4.49,3.19-2.03.42-4.02.32-5.93-.55-2.1-.97-3.15-2.6-3.25-4.92-.07-1.52.41-2.85,1.34-3.95.86-1.01,2.09-1.65,3.38-2.04,2.96-.89,6.01-1.35,9.03-1.93.33,0,.28-.24.28-.44,0-1.63-.01-3.27-.02-4.9.12-.87-.11-1.68-.41-2.48-.28-.74-.84-1.2-1.6-1.33-.86-.15-1.65.07-2.22.79-.88,1.11-1.02,3.46-.27,4.63.35.54.9.74,1.5.79.37.03.74,0,1.18,0-.5.83-1.16,1.48-2,1.92-2.09,1.11-4.26,1.44-6.5.46-2.33-1.02-3.13-3.56-1.88-5.78.85-1.52,2.29-2.24,3.83-2.81.97-.36,1.99-.57,3.02-.7.21.19.24.02.27-.14,1.26-.01,2.52-.03,3.78-.03.82,0,1.64-.01,2.46.13.04.15.16.15.28.13Zm-1.44,11.06c.07-.45-.09-.54-.47-.32-.98.11-1.87.39-2.56,1.16-1.17,1.32-1.42,5.49-.41,6.94.65.93,1.91,1.01,2.68.16.4-.44.56-.98.64-1.54.3-2.13.1-4.27.12-6.4Z"/><path d="m82.7,44.95c.48.78,1.35,1.04,2.04,1.55.13.09.3.13.36.3-.01.03-.02.06-.02.1-4.96,0-9.91.01-14.87.02-.14,0-.29.02-.39-.11.04-.05.08-.1.13-.15,1.24-.9,1.69-2.15,1.68-3.66-.02-4.71,0-9.41-.01-14.12,0-.88-.12-1.76-.24-2.64-.12-.81-.82-1.23-1.34-1.75.29-.19.62-.18.95-.18,3.67,0,7.34,0,11.01,0,.01,1.55.03,3.09.04,4.64,0,.06,0,.13,0,.19,0,.45,0,.91,0,1.36-.05.15-.08.31,0,.51.13-.16.23-.3.21-.5.55-1.8,1.23-3.54,2.53-4.95.38.02.47-.22.46-.54.54-.31.96-.81,1.58-1,.17-.01.36.01.4-.23.57-.08,1.13-.16,1.7-.24.09,0,.19,0,.28,0,2.8.27,4.35,1.44,4.99,3.74.06.22.11.46.11.69,0,.76-.07,1.53.25,2.26-.14.04-.4-.08-.32.25-.59,3.25-3.67,4.94-6.45,4.29,0-.19,0-.39,0-.58.05-.05.09-.1.14-.15.39.23.24-.12.29-.27.56-.85.6-1.79.29-2.69-.54-1.56-2.62-2.21-4.29-1.42-1.24.58-1.93,1.6-2.05,2.91-.3,3.37-.13,6.76-.09,10.14,0,.7.25,1.31.41,1.96-.08.21.05.25.21.27Z"/><path d="m106.5,15.99c.48-.04.44.3.43.61,0,2.23.02,4.47-.01,6.7,0,.59.17.75.75.74,1.79-.04,3.58-.02,5.37,0,.2,0,.67-.24.59.29-.06.35.06.87-.65.85-1.83-.04-3.67-.01-5.51-.01-.09,0-.19.01-.28.02-.05-.02-.09-.01-.13.02-.22.19-.11.44-.11.66,0,4.62,0,9.24-.02,13.86,0,.79.34,1.45.72,2.09.19.31.49.56.88.46.43-.11.64.35,1.04.32.95-.06,1.72-.47,2.31-1.16.77-.89,1.12-2,1.39-3.12.05-.2-.07-.57.29-.51.28.05.46.32.4.65-.09.46-.17.92-.3,1.37-.78,2.79-2.11,5.2-4.8,6.58-2.39,1.22-4.9,1.31-7.43.52-1.79-.56-3.17-1.74-4.03-3.39-.45-.87-.79-1.87-.81-2.88-.12-5,.03-9.99.09-14.99,0-.12,0-.24,0-.35-.06-.23-.16-.15-.27-.04-.45,0-.9.02-1.34.02-.21,0-.52.09-.51-.28,0-.28,0-.52.45-.6,2.06-.39,3.97-1.22,5.77-2.25,1.88-1.09,3.47-2.52,4.64-4.4.33-.54.65-1.08.94-1.64.05-.04.1-.09.15-.13Z"/><path d="m82,24.31c-3.67,0-7.34,0-11.01,0-.33,0-.66-.01-.95.18-.18-.1-.36-.21-.55-.31.14-.25.35-.14.51-.14,3.79,0,7.57-.01,11.36,0,.22,0,.61-.23.65.27Z"/><path d="m56.63,28.27c0,1.63.02,3.27.02,4.9,0,.2.05.45-.28.44,0-1.57,0-3.14,0-4.71,0-.23-.13-.54.25-.63Z"/><path d="m125.59,32.11c.05-.61.38-.94.99-1-.28.39-.62.71-.99,1Z"/><path d="m87.79,34.21c0,.19,0,.39,0,.58-.15-.05-.3-.1-.45-.15-.01-.04-.02-.09-.03-.13.16-.1.32-.2.48-.3Z"/><path d="m115.99,29.12c.4.19.4.38,0,.56,0-.19,0-.38,0-.56Z"/><path d="m85.24,25.03c.01.32-.08.56-.46.54.06-.26.21-.44.46-.54Z"/><path d="m119.55,33.42c.36-.13.37.11.37.35-.26.03-.36-.11-.37-.35Z"/><path d="m82.25,30.52c.02.2-.08.34-.21.5-.08-.2-.06-.36,0-.51.07,0,.14.01.21.02Z"/><path d="m123.72,27.71c-.14-.02-.26-.07-.24-.24.02-.14.13-.16.24-.18,0,.14,0,.28,0,.42Z"/><path d="m130.52,23.78c-.38.17-.21-.17-.26-.29.16.03.24.14.26.29Z"/><path d="m88.22,33.79c-.05.14.1.5-.29.27.06-.12.15-.23.29-.27Z"/><path d="m138.31,28.04c-.14-.13-.22-.29-.25-.48.31.04.26.27.25.48Z"/><path d="m87.22,23.81c-.04.24-.23.22-.4.23.1-.14.18-.31.4-.23Z"/><path d="m94.23,30.5c-.08-.33.18-.21.32-.25-.04.17-.15.24-.32.25Z"/><path d="m58.07,23.87c-.12.02-.24.02-.28-.13.21-.2.25-.04.28.13Z"/><path d="m89.21,23.56c-.09,0-.19,0-.28,0,.01-.09.03-.19.14-.19.11,0,.13.1.15.18Z"/><path d="m51.55,23.63c-.03.16-.06.33-.27.14.03-.16.15-.16.27-.14Z"/><path d="m96.41,25.28c.11-.12.21-.19.27.04-.09-.01-.18-.02-.27-.04Z"/><path d="m82.04,29.15c0-.06,0-.13,0-.19.05.03.11.06.16.1-.05.03-.11.06-.16.1Z"/><path d="m27.75,20.33c.03-.06.05-.11.08-.17.11.06.05.14.03.21-.04,0-.08-.02-.11-.04Z"/><path d="m107.05,25.21s.08-.04.13-.02c-.04.06-.08.07-.13.02Z"/><path d="m118.64,25.21s-.1.07-.14.1c.03-.07.05-.13.14-.1Z"/><path d="m137.3,26.57s-.07-.07-.1-.1c.08-.01.11.02.1.1Z"/><path d="m116.67,26.77s0,.06,0,.06c-.02-.02-.04-.04-.06-.06.02,0,.04,0,.06,0Z"/><path d="m126.86,30.6c.08-.03.11,0,.07.07-.04-.01-.06-.04-.07-.07Z"/><path d="m126.82,30.81s-.07-.1-.1-.15c.05-.02.1-.04.15-.06,0,.04.03.06.07.07-.04.05-.08.09-.11.14Z"/><path d="m116.98,32.1s.07.07.11.11c-.09.01-.12-.02-.11-.11Z"/><path d="m87.3,34.51s.02.09.03.13c-.02-.03-.04-.05-.06-.08,0,0,.02-.03.02-.05Z"/><path d="m106.5,15.99s-.1.09-.15.13c0-.1.05-.14.15-.13Z"/><path d="m125.31,24.7s.08-.07.12-.11c0,.08-.03.12-.12.11Z"/><path d="m56.62,34.92c-.23,0-.28-.26-.47-.32.38-.22.55-.13.47.32Z"/></g></svg>